HIERARCHY
ROOT Hips
{
	OFFSET 0.000000 8.830580 0.000000
	CHANNELS 6 Xposition Yposition Zposition Zrotation Yrotation Xrotation 
	JOINT Spine
	{
		OFFSET 0.000000 0.010000 0.000000
		CHANNELS 3 Zrotation Yrotation Xrotation
		JOINT Spine1
		{
			OFFSET 0.000000 2.459130 0.000000
			CHANNELS 3 Zrotation Yrotation Xrotation
			JOINT Neck
			{
				OFFSET 0.000000 2.484630 0.000000
				CHANNELS 3 Zrotation Yrotation Xrotation
				JOINT Head_virtual
				{
					OFFSET 0.000000 0.000000 0.000000
					CHANNELS 3 Zrotation Yrotation Xrotation
					JOINT Head
					{
						OFFSET 0.000000 0.927525 0.000000
						CHANNELS 3 Zrotation Yrotation Xrotation
						End Site
						{
							OFFSET 0.000000 0.000000 0.000000
						}
					}
				}
				JOINT LeftUpArm_virtual
				{
					OFFSET 0.000000 0.000000 0.000000
					CHANNELS 3 Zrotation Yrotation Xrotation
					JOINT LeftUpArm
					{
						OFFSET 1.248820 0.000000 0.000000
						CHANNELS 3 Zrotation Yrotation Xrotation
						JOINT LeftForeArm
						{
							OFFSET 2.597580 0.000000 0.000000
							CHANNELS 3 Zrotation Yrotation Xrotation
							JOINT LeftHand
							{
								OFFSET 2.455420 0.000000 0.000000
								CHANNELS 3 Zrotation Yrotation Xrotation
								End Site
								{
									OFFSET 0.000000 0.000000 0.000000
								}
							}
						}
					}
				}
				JOINT RightUpArm_virtual
				{
					OFFSET -0.000000 -0.000000 -0.000000
					CHANNELS 3 Zrotation Yrotation Xrotation
					JOINT RightUpArm
					{
						OFFSET -1.248820 -0.000000 -0.000000
						CHANNELS 3 Zrotation Yrotation Xrotation
						JOINT RightForeArm
						{
							OFFSET -2.597580 -0.000000 -0.000000
							CHANNELS 3 Zrotation Yrotation Xrotation
							JOINT RightHand
							{
								OFFSET -2.455420 -0.000000 -0.000000
								CHANNELS 3 Zrotation Yrotation Xrotation
								End Site
								{
									OFFSET 0.000000 0.000000 0.000000
								}
							}
						}
					}
				}
			}
		}
	}
	JOINT LeftUpLeg
	{
		OFFSET 1.271939 0.000000 0.000000
		CHANNELS 3 Zrotation Yrotation Xrotation
		JOINT LeftLowLeg
		{
			OFFSET 0.000000 -4.342910 0.000000
			CHANNELS 3 Zrotation Yrotation Xrotation
			JOINT LeftFoot
			{
				OFFSET 0.000000 -4.487670 0.000000
				CHANNELS 3 Zrotation Yrotation Xrotation
				JOINT LeftToeBase
				{
					OFFSET 0.000000 0.000000 1.515070
					CHANNELS 3 Zrotation Yrotation Xrotation
					End Site
					{
						OFFSET 0.000000 0.000000 0.000000
					}
				}
			}
		}
	}
	JOINT RightUpLeg
	{
		OFFSET -1.271939 0.000000 0.000000
		CHANNELS 3 Zrotation Yrotation Xrotation
		JOINT RightLowLeg
		{
			OFFSET 0.000000 -4.342910 0.000000
			CHANNELS 3 Zrotation Yrotation Xrotation
			JOINT RightFoot
			{
				OFFSET 0.000000 -4.487670 0.000000
				CHANNELS 3 Zrotation Yrotation Xrotation
				JOINT RightToeBase
				{
					OFFSET 0.000000 0.000000 1.515070
					CHANNELS 3 Zrotation Yrotation Xrotation
					End Site
					{
						OFFSET 0.000000 0.000000 0.000000
					}
				}
			}
		}
	}
}
MOTION
Frames: 17
Frame Time: 0.041667
-15.341504 4.419920 33.842964 167.327356 0.915764 -155.105733 9.382882 -6.919729 24.954255 4.526078 -6.617585 6.251697 0.000000 0.000000 0.000000 12.920955 6.850306 -27.330873 -8.293422 -16.780588 -85.182079 -13.357100 -13.440400 9.352997 -35.224300 -50.545200 -6.779680 0.000000 -84.131203 0.000000 57.875099 -6.280160 22.514000 15.437100 4.352920 -3.747009 16.840700 42.438099 -42.610992 0.000000 83.936798 0.000000 -30.626499 6.654800 12.106000 -56.382117 17.835697 -122.597872 0.000000 0.000000 113.189003 0.780325 -23.855737 -0.649709 0.000000 0.000000 -34.241600 24.503852 -25.970964 -63.585314 0.000000 0.000000 137.485992 59.223666 13.670526 -7.998099 0.000000 0.000000 -81.035004 
-15.340892 4.420066 33.854227 166.950348 1.044541 -154.485145 9.268471 -6.720375 24.809952 4.649451 -6.507537 5.944055 0.000000 0.000000 0.000000 12.908753 6.698013 -27.360660 -8.196526 -16.838379 -85.010581 -13.244000 -13.387400 9.606995 -34.974400 -50.770401 -6.817310 0.000000 -84.094200 0.000000 57.240299 -5.884830 21.507099 15.463600 4.229860 -3.804993 15.929700 40.382099 -43.033997 0.000000 81.935799 0.000000 -30.387899 8.471710 14.725200 -57.472568 17.640728 -123.080078 0.000000 0.000000 113.015999 0.253084 -24.543334 -0.332987 0.000000 0.000000 -34.271700 24.533439 -25.674805 -64.448243 0.000000 0.000000 137.662003 59.281914 13.724145 -8.050404 0.000000 0.000000 -81.073196 
-15.337068 4.420190 33.857733 166.877372 0.917584 -154.357523 9.377579 -6.770682 24.853145 4.777787 -6.439590 6.050627 0.000000 0.000000 0.000000 12.954042 6.627794 -27.496403 -8.229610 -16.850517 -84.985356 -13.250900 -13.347700 9.635986 -34.739799 -50.912102 -6.835240 0.000000 -83.886101 0.000000 57.264400 -6.126690 21.975401 15.524200 4.146580 -4.001007 15.073900 38.576900 -43.272003 0.000000 79.877296 0.000000 -30.699499 10.524300 18.013500 -58.045693 17.717891 -123.218243 0.000000 0.000000 112.930000 0.064699 -24.937590 -0.182186 0.000000 0.000000 -34.182100 24.581456 -25.698330 -64.600104 0.000000 0.000000 137.664001 59.371629 13.823937 -7.917234 0.000000 0.000000 -81.190102 
-15.330054 4.418008 33.854402 166.781197 0.611983 -154.495511 9.414849 -6.823697 25.134164 5.151503 -6.432841 5.897552 0.000000 0.000000 0.000000 12.936370 6.526582 -27.342988 -8.223060 -17.004824 -85.195535 -13.561800 -13.544700 9.834991 -34.297798 -50.759899 -6.927400 0.000000 -83.764397 0.000000 57.247601 -6.225880 22.163401 15.496400 3.964300 -4.278015 14.471200 36.815601 -43.424988 0.000000 77.922302 0.000000 -30.725500 12.484800 21.215599 -58.393839 17.922924 -123.076951 0.000000 0.000000 112.884003 -0.178455 -25.288499 -0.013714 0.000000 0.000000 -34.428801 25.126899 -26.286068 -64.746765 0.000000 0.000000 138.563004 38.345666 0.587989 -16.496894 0.000000 0.000000 -63.488400 
-15.324958 4.419675 33.853778 166.790637 0.393937 -154.540665 9.566849 -6.974113 25.294877 5.189191 -6.408260 5.875610 0.000000 0.000000 0.000000 12.945485 6.558706 -27.363187 -8.217576 -16.984214 -85.212928 -13.681200 -13.506800 9.886993 -33.931599 -50.713600 -6.919710 0.000000 -83.592400 0.000000 57.295799 -6.273790 22.502600 15.546200 3.890800 -4.424011 13.730800 35.156898 -43.713013 0.000000 76.036201 0.000000 -30.639200 14.091800 23.531300 -58.557468 18.026678 -122.994585 0.000000 0.000000 112.819000 -0.262998 -25.509701 -0.003878 0.000000 0.000000 -34.294100 25.101793 -26.420452 -64.620133 0.000000 0.000000 138.460999 37.953422 0.406933 -16.284922 0.000000 0.000000 -64.331699 
-15.320127 4.422992 33.854279 166.525353 0.287739 -154.229990 9.489084 -7.010712 25.046114 5.181079 -6.468051 5.839306 0.000000 0.000000 0.000000 13.062669 6.611135 -27.330453 -8.272298 -16.964218 -85.198857 -13.704600 -13.486600 10.121002 -33.460201 -50.783501 -7.097220 0.000000 -83.355202 0.000000 57.048000 -6.435570 21.993299 15.424400 3.742450 -4.851013 13.571400 33.945202 -43.984985 0.000000 73.818199 0.000000 -30.578100 16.423700 26.024300 -58.991099 17.831039 -122.985193 0.000000 0.000000 112.647003 -0.970533 -25.889147 0.363701 0.000000 0.000000 -34.688801 25.030301 -26.404644 -64.997784 0.000000 0.000000 138.485001 37.854208 0.513725 -16.132466 0.000000 0.000000 -64.372700 
-15.314636 4.428535 33.853303 166.342123 0.228707 -154.177830 9.389947 -6.980660 24.998882 5.238811 -6.539879 5.864776 0.000000 0.000000 0.000000 13.064276 6.597299 -27.416794 -8.290260 -16.934406 -85.128220 -13.752000 -13.409500 10.272003 -33.113800 -50.898998 -7.101800 0.000000 -83.044899 0.000000 57.131001 -6.436050 21.882601 15.392300 3.701470 -5.062988 12.961600 32.473598 -44.302002 0.000000 72.105301 0.000000 -30.286501 17.566200 28.512501 -59.158248 17.875261 -122.900104 0.000000 0.000000 112.538002 -1.605322 -26.215141 0.732887 0.000000 0.000000 -34.869801 24.897505 -26.449158 -65.045733 0.000000 0.000000 138.427994 38.286676 0.755732 -16.036932 0.000000 0.000000 -63.820099 
-15.311071 4.437843 33.850983 166.060134 0.198993 -154.212944 9.259531 -6.965790 24.964735 5.147561 -6.676178 5.908567 0.000000 0.000000 0.000000 13.229461 6.630657 -27.510902 -8.415007 -16.882733 -85.051639 -13.718500 -13.323600 10.234009 -33.101898 -50.953899 -6.783530 0.000000 -82.658203 0.000000 57.091000 -6.410060 21.786200 15.307600 3.527660 -5.546997 12.685500 31.338200 -44.233002 0.000000 70.000603 0.000000 -30.132200 19.530399 30.954901 -59.262569 17.978778 -122.632186 0.000000 0.000000 112.375000 -2.042229 -26.510731 0.938265 0.000000 0.000000 -34.820801 24.631080 -26.601089 -65.022150 0.000000 0.000000 138.363998 38.217764 0.726178 -15.979217 0.000000 0.000000 -63.934299 
-15.305921 4.445889 33.848289 165.728164 0.327979 -154.161154 8.993564 -6.803642 24.779922 4.994132 -6.817361 5.916993 0.000000 0.000000 0.000000 13.329147 6.657164 -27.511870 -8.340979 -16.846444 -84.905534 -13.620100 -13.276200 10.381012 -33.041801 -51.050800 -6.694220 0.000000 -82.234596 0.000000 56.881802 -6.390250 21.597500 15.152800 3.424900 -5.764008 12.405500 30.300501 -44.356995 0.000000 67.941803 0.000000 -29.469999 21.827000 34.803600 -59.440369 18.076936 -122.536401 0.000000 0.000000 112.276001 -2.495724 -26.765974 1.172661 0.000000 0.000000 -34.771000 24.380593 -26.589927 -65.099859 0.000000 0.000000 138.332993 38.173593 0.643398 -16.042838 0.000000 0.000000 -63.805698 
-15.301351 4.457218 33.839727 165.521815 0.252658 -154.002108 8.915005 -6.844690 24.381141 4.839805 -6.873108 5.897823 0.000000 0.000000 0.000000 13.496262 6.703368 -27.340011 -8.371504 -16.880958 -84.921891 -13.745000 -13.301400 10.608002 -32.792702 -51.062500 -6.621420 0.000000 -81.705399 0.000000 56.882099 -6.530090 21.874701 15.176900 3.303480 -6.131989 12.100300 29.412100 -44.020996 0.000000 65.711502 0.000000 -29.153299 23.950899 37.327599 -59.322933 17.942355 -122.287307 0.000000 0.000000 112.147003 -2.795401 -26.878138 1.257013 0.000000 0.000000 -34.657900 24.296574 -26.771254 -65.168381 0.000000 0.000000 138.175995 37.813473 0.530785 -16.072709 0.000000 0.000000 -64.549702 
-15.291079 4.465728 33.828861 165.514128 0.311379 -154.325546 8.717928 -6.666975 24.421509 4.865848 -6.945662 5.889865 0.000000 0.000000 0.000000 13.596132 6.711799 -27.295950 -8.395736 -16.879230 -84.848638 -13.836600 -13.262100 10.811005 -32.714901 -51.086498 -6.383470 0.000000 -81.109596 0.000000 56.770100 -6.651200 21.709900 15.079900 3.156770 -6.421997 12.033700 28.718300 -43.617004 0.000000 63.685799 0.000000 -28.848301 25.452101 39.903702 -59.023658 18.304655 -122.068203 0.000000 0.000000 112.164001 -2.722478 -26.775421 1.190905 0.000000 0.000000 -34.641800 24.171461 -26.890202 -64.689057 0.000000 0.000000 137.953003 38.034391 0.395993 -16.074794 0.000000 0.000000 -64.612400 
-15.281616 4.478012 33.809038 165.626303 0.002232 -154.739147 8.751523 -6.824278 24.447911 4.972308 -7.009593 5.759391 0.000000 0.000000 0.000000 13.630036 6.712223 -26.987331 -8.411031 -17.027071 -85.116083 -14.243800 -13.299000 10.993011 -32.610298 -50.862301 -6.009990 0.000000 -80.445999 0.000000 56.557701 -6.657310 21.557301 15.170700 3.084690 -6.417999 11.569600 27.942400 -42.720001 0.000000 61.882000 0.000000 -29.480900 25.522200 40.131699 -58.438167 18.568703 -121.497476 0.000000 0.000000 112.160004 -2.262486 -26.474866 0.917863 0.000000 0.000000 -34.551399 24.129524 -27.446936 -63.929178 0.000000 0.000000 137.552994 37.888959 0.190424 -16.094291 0.000000 0.000000 -64.545200 
-15.274755 4.489086 33.794112 165.531472 0.006373 -155.103800 8.561939 -6.817213 24.220397 4.784839 -7.215203 6.025438 0.000000 0.000000 0.000000 13.566638 6.690779 -27.221244 -8.388102 -16.909289 -84.851493 -14.161600 -13.101500 10.911011 -32.821999 -50.855801 -5.438640 0.000000 -79.747803 0.000000 56.362301 -6.420570 21.217600 15.019200 3.079530 -6.632996 11.781700 27.381100 -41.622009 0.000000 60.408298 0.000000 -29.693899 25.414400 40.645500 -58.122751 18.865718 -121.046729 0.000000 0.000000 112.133003 -1.669464 -26.079358 0.550000 0.000000 0.000000 -34.270000 23.874034 -27.727206 -63.384532 0.000000 0.000000 137.298004 37.356866 -0.571991 -16.097525 0.000000 0.000000 -64.775002 
-15.264950 4.499831 33.762833 165.828184 -0.740120 -155.412108 8.970136 -7.402105 23.685285 4.647657 -7.215914 6.222213 0.000000 0.000000 0.000000 13.595870 6.666315 -27.064038 -8.437010 -17.019088 -85.067182 -14.561800 -13.071000 11.209991 -32.518902 -50.771000 -5.059490 0.000000 -78.803802 0.000000 56.200100 -6.389480 21.048300 15.196100 3.021670 -6.520996 11.787800 26.930799 -40.548004 0.000000 59.167099 0.000000 -29.667900 25.102501 41.113602 -56.909454 18.733336 -120.255804 0.000000 0.000000 112.219002 -1.383551 -25.669473 0.393207 0.000000 0.000000 -34.093201 24.034400 -28.586296 -62.506308 0.000000 0.000000 136.735992 36.505744 -1.172569 -15.947728 0.000000 0.000000 -64.982399 
-15.251254 4.512951 33.742143 165.919122 -0.536471 -156.014333 8.713550 -7.212751 23.587517 4.420384 -7.370167 6.477251 0.000000 0.000000 0.000000 13.468332 6.627020 -27.188812 -8.331437 -16.963440 -84.892510 -14.512600 -12.952800 11.028015 -32.870300 -50.670898 -4.193120 0.000000 -77.711700 0.000000 56.105598 -6.385210 20.860701 15.195200 2.983650 -6.454010 12.405200 26.659700 -39.256989 0.000000 58.650200 0.000000 -29.490801 24.034201 40.984699 -56.524359 19.421196 -119.947739 0.000000 0.000000 112.315002 -1.174086 -25.350940 0.277525 0.000000 0.000000 -34.303801 23.648689 -28.641653 -61.495273 0.000000 0.000000 136.503998 38.047151 0.544986 -16.027245 0.000000 0.000000 -63.987301 
-15.237368 4.526229 33.715056 166.072970 -0.570558 -156.659340 8.569920 -7.207303 23.522913 4.292513 -7.511527 6.465325 0.000000 0.000000 0.000000 13.230444 6.493987 -27.048256 -8.249045 -17.040879 -84.804843 -14.696400 -12.937100 11.071991 -33.021801 -50.348598 -3.405610 0.000000 -76.666801 0.000000 55.966499 -6.328950 20.836000 15.257800 2.896910 -6.204010 13.250100 26.461300 -37.746002 0.000000 58.915100 0.000000 -29.153601 22.203600 40.226299 -55.901133 20.034081 -119.440101 0.000000 0.000000 112.425003 -0.794188 -24.978796 0.032875 0.000000 0.000000 -34.406401 23.276174 -28.865960 -60.374218 0.000000 0.000000 136.070007 38.037939 0.619036 -15.816648 0.000000 0.000000 -64.205299 
-15.223463 4.540708 33.687215 166.205023 -0.564241 -157.269247 8.358709 -7.221434 23.290601 4.178661 -7.735093 6.648959 0.000000 0.000000 0.000000 12.900497 6.311591 -27.029040 -8.215112 -17.087898 -84.638853 -14.804600 -12.975000 10.903015 -33.280499 -49.781601 -2.549830 0.000000 -75.789001 0.000000 55.759899 -6.089720 20.590500 15.314700 2.738910 -6.248993 14.556000 26.509800 -35.802002 0.000000 60.298698 0.000000 -28.334499 19.099400 38.478802 -55.336845 20.621882 -118.939155 0.000000 0.000000 112.528999 -0.585720 -24.564944 -0.130952 0.000000 0.000000 -34.574900 22.809826 -29.083276 -59.211018 0.000000 0.000000 135.570999 36.324444 -0.904961 -15.434573 0.000000 0.000000 -66.145302 
